<svg width="147" height="60" viewBox="0 0 147 60" fill="none" xmlns="http://www.w3.org/2000/svg">
<path d="M93.7656 22.9688C95.0885 21.4896 96.6146 20.7604 98.3438 20.7812C100.021 20.8229 101.25 21.4271 102.031 22.5938C102.823 23.75 103.12 25.3333 102.922 27.3438L101.141 38H96.7344L98.5312 27.2969C98.5833 26.8906 98.5938 26.5156 98.5625 26.1719C98.4583 25.0469 97.8021 24.4688 96.5938 24.4375C95.4062 24.3958 94.3646 24.9062 93.4688 25.9688L91.3438 38H86.9375L91.0938 14H95.5156L93.7656 22.9688Z" fill="#6809CD"/>
<path d="M112.609 38.3125C111.13 38.3021 109.818 37.9427 108.672 37.2344C107.536 36.5156 106.688 35.5365 106.125 34.2969C105.562 33.0469 105.344 31.6719 105.469 30.1719L105.516 29.5469C105.672 27.901 106.151 26.3906 106.953 25.0156C107.755 23.6406 108.786 22.5833 110.047 21.8438C111.307 21.0938 112.703 20.7396 114.234 20.7812C116.411 20.8229 118.057 21.625 119.172 23.1875C120.297 24.7396 120.724 26.7083 120.453 29.0938L120.203 31.0156H109.844C109.802 32.1094 110.068 32.9844 110.641 33.6406C111.214 34.2969 111.995 34.6354 112.984 34.6562C114.589 34.6979 115.995 34.0781 117.203 32.7969L119.219 35.2969C118.583 36.2552 117.667 37.0052 116.469 37.5469C115.271 38.0781 113.984 38.3333 112.609 38.3125ZM114.016 24.4219C113.203 24.401 112.479 24.6562 111.844 25.1875C111.219 25.7188 110.656 26.6406 110.156 27.9531H116.219L116.312 27.5469C116.375 27.1302 116.38 26.7344 116.328 26.3594C116.224 25.7552 115.969 25.2865 115.562 24.9531C115.156 24.6094 114.641 24.4323 114.016 24.4219Z" fill="#6809CD"/>
<path d="M126.172 38H121.734L125.906 14H130.328L126.172 38Z" fill="#6809CD"/>
<path d="M146.156 29.5938C145.938 31.3646 145.474 32.9375 144.766 34.3125C144.057 35.6875 143.177 36.7083 142.125 37.375C141.073 38.0417 139.906 38.3594 138.625 38.3281C136.99 38.2865 135.698 37.6771 134.75 36.5L133.203 44.5H128.797L132.844 21.0938L136.906 21.0781L136.609 22.7812C137.828 21.4062 139.266 20.7396 140.922 20.7812C142.578 20.8229 143.865 21.4271 144.781 22.5938C145.698 23.75 146.188 25.3229 146.25 27.3125C146.271 27.9583 146.24 28.7188 146.156 29.5938ZM141.781 29.2656L141.875 27.7656C141.896 26.7552 141.708 25.9531 141.312 25.3594C140.927 24.7656 140.359 24.4583 139.609 24.4375C138.328 24.3958 137.271 24.9375 136.438 26.0625L135.172 33.0312C135.557 34.0833 136.385 34.6302 137.656 34.6719C138.719 34.7031 139.604 34.2917 140.312 33.4375C141.021 32.5833 141.51 31.1927 141.781 29.2656Z" fill="#6809CD"/>
<path d="M0 15.999H4.47282V37.2735H0V15.999Z" fill="#29292E"/>
<path d="M22.5872 29.6181C22.5872 29.6755 22.5585 30.0769 22.5012 30.8223H10.8317C11.042 31.7781 11.5389 32.5331 12.3226 33.0874C13.1063 33.6417 14.0812 33.9189 15.2472 33.9189C16.05 33.9189 16.7572 33.8042 17.3689 33.5748C17.9997 33.3264 18.5827 32.9441 19.1179 32.428L21.4977 35.0084C20.0449 36.6714 17.9232 37.5029 15.1325 37.5029C13.3931 37.5029 11.8543 37.1684 10.5163 36.4994C9.1783 35.8113 8.14611 34.8651 7.41975 33.6609C6.6934 32.4566 6.33022 31.0899 6.33022 29.5608C6.33022 28.0507 6.68384 26.6936 7.39108 25.4894C8.11744 24.266 9.10184 23.3199 10.3443 22.6508C11.6059 21.9627 13.0108 21.6187 14.5591 21.6187C16.0691 21.6187 17.4358 21.9436 18.6591 22.5935C19.8825 23.2434 20.8382 24.18 21.5263 25.4033C22.2336 26.6076 22.5872 28.0125 22.5872 29.6181ZM14.5877 25.0019C13.5747 25.0019 12.7241 25.2887 12.0359 25.8621C11.3478 26.4355 10.9273 27.2192 10.7744 28.2132H18.3724C18.2195 27.2384 17.799 26.4642 17.1109 25.8908C16.4227 25.2982 15.5817 25.0019 14.5877 25.0019Z" fill="#29292E"/>
<path d="M34.3673 36.5281C33.9277 36.853 33.3829 37.1015 32.733 37.2735C32.1022 37.4264 31.4332 37.5029 30.726 37.5029C28.891 37.5029 27.4669 37.0346 26.4539 36.098C25.4599 35.1614 24.9629 33.7851 24.9629 31.9692V25.6327H22.5832V22.1921H24.9629V18.4361H29.4357V22.1921H33.2778V25.6327H29.4357V31.9119C29.4357 32.5618 29.5982 33.0683 29.9232 33.4315C30.2672 33.7755 30.7451 33.9476 31.3568 33.9476C32.064 33.9476 32.6661 33.7564 33.1631 33.3741L34.3673 36.5281Z" fill="#29292E"/>
<path d="M55.4862 21.6187C57.4168 21.6187 58.9459 22.1921 60.0737 23.339C61.2206 24.4667 61.794 26.1679 61.794 28.4426V37.2735H57.3212V29.1307C57.3212 27.9074 57.0631 26.9994 56.5471 26.4069C56.0501 25.7952 55.3333 25.4894 54.3967 25.4894C53.3454 25.4894 52.5139 25.8334 51.9022 26.5216C51.2905 27.1906 50.9847 28.1941 50.9847 29.5321V37.2735H46.5119V29.1307C46.5119 26.7031 45.537 25.4894 43.5873 25.4894C42.5552 25.4894 41.7332 25.8334 41.1216 26.5216C40.5099 27.1906 40.2041 28.1941 40.2041 29.5321V37.2735H35.7312V21.848H40.0034V23.6257C40.5768 22.9758 41.2745 22.4788 42.0964 22.1348C42.9375 21.7907 43.855 21.6187 44.8489 21.6187C45.9384 21.6187 46.9228 21.8385 47.8021 22.2781C48.6814 22.6986 49.3886 23.3199 49.9238 24.1418C50.5546 23.339 51.3479 22.7177 52.3036 22.2781C53.2785 21.8385 54.3393 21.6187 55.4862 21.6187Z" fill="#29292E"/>
<path d="M79.9344 29.6181C79.9344 29.6755 79.9057 30.0769 79.8484 30.8223H68.1789C68.3891 31.7781 68.8861 32.5331 69.6698 33.0874C70.4535 33.6417 71.4284 33.9189 72.5944 33.9189C73.3972 33.9189 74.1044 33.8042 74.7161 33.5748C75.3469 33.3264 75.9299 32.9441 76.4651 32.428L78.8448 35.0084C77.3921 36.6714 75.2704 37.5029 72.4797 37.5029C70.7402 37.5029 69.2015 37.1684 67.8635 36.4994C66.5255 35.8113 65.4933 34.8651 64.7669 33.6609C64.0406 32.4566 63.6774 31.0899 63.6774 29.5608C63.6774 28.0507 64.031 26.6936 64.7383 25.4894C65.4646 24.266 66.449 23.3199 67.6915 22.6508C68.953 21.9627 70.3579 21.6187 71.9062 21.6187C73.4163 21.6187 74.783 21.9436 76.0063 22.5935C77.2297 23.2434 78.1854 24.18 78.8735 25.4033C79.5807 26.6076 79.9344 28.0125 79.9344 29.6181ZM71.9349 25.0019C70.9218 25.0019 70.0712 25.2887 69.3831 25.8621C68.695 26.4355 68.2745 27.2192 68.1215 28.2132H75.7196C75.5667 27.2384 75.1462 26.4642 74.458 25.8908C73.7699 25.2982 72.9289 25.0019 71.9349 25.0019Z" fill="#29292E"/>
</svg>
